<svg width="106" height="105" viewBox="0 0 106 105" fill="none" xmlns="http://www.w3.org/2000/svg">
<g filter="url(#filter0_d_192_40)">
<mask id="path-1-inside-1_192_40" fill="white">
<path d="M101.82 29.6296C101.82 46.2757 88.0205 59.77 71.6657 59.77C69.0309 59.77 66.0437 59.2591 63.9993 58.7483C62.9771 54.6615 60.5261 49.6573 57.3551 46.4878C53.2664 42.4009 47.1333 38.3141 43.0446 37.2924C42.5335 35.249 42.0224 33.1451 42.0224 30.1404C42.0224 13.4943 55.0119 0 71.6657 0C88.3195 0 101.82 12.9835 101.82 29.6296Z"/>
<path d="M91.5799 7.58965C83.7526 14.9072 79.6903 22.2626 79.4932 29.4321H101.507C101.428 21.0773 97.8225 13.1452 91.5799 7.58965Z"/>
<path d="M91.1234 7.18245C85.8186 2.61172 79.0652 0.0672102 72.0611 0V29.4314H78.8756C79.0737 22.1009 83.185 14.6113 91.1234 7.18245Z"/>
<path d="M64.6305 29.4319H71.445V0.000441274C64.4417 0.0675831 57.6885 2.61216 52.3835 7.18289C60.322 14.6115 64.4331 22.1011 64.6305 29.4319Z"/>
<path d="M78.8767 30.0489H72.0614V59.4803C79.0421 59.4158 85.7748 56.8893 91.0745 52.3479C83.0122 45.0174 78.9138 37.5262 78.8767 30.0489Z"/>
<path d="M51.9251 7.58965C45.7006 13.1538 42.1146 21.085 42.0482 29.4321H64.0118C63.8146 22.2626 59.7525 14.9072 51.9251 7.58965Z"/>
<path d="M91.5446 51.9417C97.8141 46.3811 101.434 38.4274 101.508 30.0502H79.4947C79.5317 37.3556 83.5821 44.7223 91.5446 51.9417Z"/>
<path d="M57.7035 46.8691C60.6626 50.2322 62.8533 54.1987 64.1236 58.4931C66.5134 59.1241 68.9729 59.4555 71.4445 59.4804V30.049H64.63C64.6051 35.6759 62.2841 41.3032 57.7035 46.8691Z"/>
<path d="M44.2597 37.8607C49.2554 39.5573 53.7379 42.4951 57.2842 46.4006C61.7288 40.9706 63.9876 35.4918 64.0128 30.05H42C42.0284 32.5506 42.372 35.0392 43.0248 37.4537C43.4321 37.6267 43.8515 37.7625 44.2597 37.8607Z"/>
</mask>
<path d="M101.82 29.6296C101.82 46.2757 88.0205 59.77 71.6657 59.77C69.0309 59.77 66.0437 59.2591 63.9993 58.7483C62.9771 54.6615 60.5261 49.6573 57.3551 46.4878C53.2664 42.4009 47.1333 38.3141 43.0446 37.2924C42.5335 35.249 42.0224 33.1451 42.0224 30.1404C42.0224 13.4943 55.0119 0 71.6657 0C88.3195 0 101.82 12.9835 101.82 29.6296Z" fill="black"/>
<path d="M91.5799 7.58965C83.7526 14.9072 79.6903 22.2626 79.4932 29.4321H101.507C101.428 21.0773 97.8225 13.1452 91.5799 7.58965Z" fill="#FF8A00"/>
<path d="M91.1234 7.18245C85.8186 2.61172 79.0652 0.0672102 72.0611 0V29.4314H78.8756C79.0737 22.1009 83.185 14.6113 91.1234 7.18245Z" fill="#FF8A00"/>
<path d="M64.6305 29.4319H71.445V0.000441274C64.4417 0.0675831 57.6885 2.61216 52.3835 7.18289C60.322 14.6115 64.4331 22.1011 64.6305 29.4319Z" fill="#FF8A00"/>
<path d="M78.8767 30.0489H72.0614V59.4803C79.0421 59.4158 85.7748 56.8893 91.0745 52.3479C83.0122 45.0174 78.9138 37.5262 78.8767 30.0489Z" fill="#FF8A00"/>
<path d="M51.9251 7.58965C45.7006 13.1538 42.1146 21.085 42.0482 29.4321H64.0118C63.8146 22.2626 59.7525 14.9072 51.9251 7.58965Z" fill="#FF8A00"/>
<path d="M91.5446 51.9417C97.8141 46.3811 101.434 38.4274 101.508 30.0502H79.4947C79.5317 37.3556 83.5821 44.7223 91.5446 51.9417Z" fill="#FF8A00"/>
<path d="M57.7035 46.8691C60.6626 50.2322 62.8533 54.1987 64.1236 58.4931C66.5134 59.1241 68.9729 59.4555 71.4445 59.4804V30.049H64.63C64.6051 35.6759 62.2841 41.3032 57.7035 46.8691Z" fill="#FF8A00"/>
<path d="M44.2597 37.8607C49.2554 39.5573 53.7379 42.4951 57.2842 46.4006C61.7288 40.9706 63.9876 35.4918 64.0128 30.05H42C42.0284 32.5506 42.372 35.0392 43.0248 37.4537C43.4321 37.6267 43.8515 37.7625 44.2597 37.8607Z" fill="#FF8A00"/>
<path d="M57.3551 46.4878L58.0621 45.7805L58.0621 45.7805L57.3551 46.4878ZM43.0446 37.2924L42.0745 37.535L42.2201 38.1171L42.8022 38.2626L43.0446 37.2924ZM63.9993 58.7483L63.0292 58.9909L63.1748 59.573L63.7569 59.7185L63.9993 58.7483ZM91.5799 7.58965L92.2447 6.84263L91.5633 6.23623L90.897 6.85916L91.5799 7.58965ZM79.4932 29.4321L78.4936 29.4046L78.4654 30.4321H79.4932V29.4321ZM101.507 29.4321V30.4321H102.516L102.507 29.4226L101.507 29.4321ZM91.1234 7.18245L91.8067 7.91261L92.6197 7.15174L91.7762 6.42488L91.1234 7.18245ZM72.0611 0L72.0707 -0.999954L71.0611 -1.00964V0H72.0611ZM72.0611 29.4314H71.0611V30.4314H72.0611V29.4314ZM78.8756 29.4314V30.4314H79.8489L79.8752 29.4584L78.8756 29.4314ZM64.6305 29.4319L63.6308 29.4588L63.657 30.4319H64.6305V29.4319ZM71.445 29.4319V30.4319H72.445V29.4319H71.445ZM71.445 0.000441274H72.445V-1.00919L71.4354 -0.999513L71.445 0.000441274ZM52.3835 7.18289L51.7308 6.4253L50.8872 7.15217L51.7003 7.91306L52.3835 7.18289ZM78.8767 30.0489L79.8767 30.0439L79.8718 29.0489H78.8767V30.0489ZM72.0614 30.0489V29.0489H71.0614V30.0489H72.0614ZM72.0614 59.4803H71.0614V60.4896L72.0706 60.4803L72.0614 59.4803ZM91.0745 52.3479L91.7252 53.1072L92.5854 52.3701L91.7472 51.608L91.0745 52.3479ZM51.9251 7.58965L52.6081 6.85916L51.9403 6.23485L51.2587 6.8441L51.9251 7.58965ZM42.0482 29.4321L41.0482 29.4241L41.0402 30.4321H42.0482V29.4321ZM64.0118 29.4321V30.4321H65.0397L65.0114 29.4046L64.0118 29.4321ZM91.5446 51.9417L90.8729 52.6826L91.5372 53.2849L92.2081 52.6899L91.5446 51.9417ZM101.508 30.0502L102.508 30.059L102.517 29.0502H101.508V30.0502ZM79.4947 30.0502V29.0502H78.4896L78.4947 30.0552L79.4947 30.0502ZM57.7035 46.8691L56.9314 46.2336L56.3906 46.8907L56.9528 47.5296L57.7035 46.8691ZM64.1236 58.4931L63.1647 58.7768L63.3243 59.3163L63.8684 59.46L64.1236 58.4931ZM71.4445 59.4804L71.4344 60.4804L72.4445 60.4906V59.4804H71.4445ZM71.4445 30.049H72.4445V29.049H71.4445V30.049ZM64.63 30.049V29.049H63.6345L63.63 30.0446L64.63 30.049ZM44.2597 37.8607L44.5813 36.9138L44.538 36.8991L44.4935 36.8884L44.2597 37.8607ZM57.2842 46.4006L56.5439 47.0728L57.3235 47.9314L58.0581 47.034L57.2842 46.4006ZM64.0128 30.05L65.0128 30.0546L65.0174 29.05H64.0128V30.05ZM42 30.05V29.05H40.9886L41.0001 30.0613L42 30.05ZM43.0248 37.4537L42.0595 37.7147L42.1863 38.184L42.6339 38.3741L43.0248 37.4537ZM100.82 29.6296C100.82 45.7165 87.4751 58.77 71.6657 58.77V60.77C88.5659 60.77 102.82 46.8348 102.82 29.6296H100.82ZM43.0224 30.1404C43.0224 14.0246 55.586 1 71.6657 1V-1C54.4378 -1 41.0224 12.9641 41.0224 30.1404H43.0224ZM71.6657 1C87.7901 1 100.82 13.5584 100.82 29.6296H102.82C102.82 12.4086 88.8488 -1 71.6657 -1V1ZM58.0621 45.7805C55.9642 43.6836 53.3534 41.597 50.7447 39.9021C48.1505 38.2167 45.4873 36.872 43.287 36.3222L42.8022 38.2626C44.6906 38.7345 47.1383 39.9441 49.6551 41.5792C52.1573 43.2049 54.6574 45.2051 56.6482 47.195L58.0621 45.7805ZM44.0147 37.0498C43.5076 35.0223 43.0224 33.0169 43.0224 30.1404H41.0224C41.0224 33.2733 41.5594 35.4756 42.0745 37.535L44.0147 37.0498ZM71.6657 58.77C69.1378 58.77 66.2357 58.2764 64.2417 57.7781L63.7569 59.7185C65.8517 60.2419 68.924 60.77 71.6657 60.77V58.77ZM64.9694 58.5056C63.914 54.2861 61.3895 49.1064 58.0621 45.7805L56.6482 47.195C59.6628 50.2082 62.0402 55.0368 63.0292 58.9909L64.9694 58.5056ZM90.897 6.85916C82.9692 14.2706 78.701 21.8612 78.4936 29.4046L80.4929 29.4595C80.6797 22.664 84.5359 15.5438 92.2628 8.32015L90.897 6.85916ZM79.4932 30.4321H101.507V28.4321H79.4932V30.4321ZM102.507 29.4226C102.425 20.7856 98.698 12.5857 92.2447 6.84263L90.9151 8.33668C96.947 13.7047 100.43 21.369 100.507 29.4415L102.507 29.4226ZM91.7762 6.42488C86.2923 1.69984 79.311 -0.930477 72.0707 -0.999954L72.0515 0.999954C78.8194 1.0649 85.345 3.5236 90.4707 7.94003L91.7762 6.42488ZM71.0611 0V29.4314H73.0611V0H71.0611ZM72.0611 30.4314H78.8756V28.4314H72.0611V30.4314ZM79.8752 29.4584C80.0633 22.4997 83.9709 15.2454 91.8067 7.91261L90.4401 6.4523C82.3991 13.9772 78.0841 21.7021 77.876 29.4044L79.8752 29.4584ZM64.6305 30.4319H71.445V28.4319H64.6305V30.4319ZM72.445 29.4319V0.000441274H70.445V29.4319H72.445ZM71.4354 -0.999513C64.1959 -0.930106 57.2148 1.7003 51.7308 6.4253L53.0363 7.94048C58.1622 3.52402 64.6876 1.06527 71.4545 1.0004L71.4354 -0.999513ZM51.7003 7.91306C59.536 15.2456 63.4435 22.4999 63.6308 29.4588L65.6301 29.405C65.4228 21.7024 61.1079 13.9774 53.0668 6.45273L51.7003 7.91306ZM78.8767 29.0489H72.0614V31.0489H78.8767V29.0489ZM71.0614 30.0489V59.4803H73.0614V30.0489H71.0614ZM72.0706 60.4803C79.2869 60.4135 86.2467 57.8019 91.7252 53.1072L90.4238 51.5886C85.3029 55.9768 78.7973 58.418 72.0521 58.4804L72.0706 60.4803ZM91.7472 51.608C83.796 44.3785 79.9118 37.1335 79.8767 30.0439L77.8768 30.0539C77.9157 37.9189 82.2283 45.6562 90.4018 53.0878L91.7472 51.608ZM51.2587 6.8441C44.824 12.5961 41.1168 20.7952 41.0482 29.4241L43.0482 29.44C43.1123 21.3749 46.5772 13.7115 52.5916 8.33521L51.2587 6.8441ZM42.0482 30.4321H64.0118V28.4321H42.0482V30.4321ZM65.0114 29.4046C64.8039 21.8613 60.5358 14.2706 52.6081 6.85916L51.2422 8.32015C58.9691 15.5438 62.8253 22.664 63.0122 29.4596L65.0114 29.4046ZM92.2081 52.6899C98.6892 46.9416 102.432 38.7193 102.508 30.059L100.508 30.0413C100.437 38.1355 96.9389 45.8207 90.881 51.1936L92.2081 52.6899ZM101.508 29.0502H79.4947V31.0502H101.508V29.0502ZM78.4947 30.0552C78.5337 37.7509 82.801 45.3639 90.8729 52.6826L92.2163 51.2009C84.3632 44.0806 80.5298 36.9603 80.4947 30.0451L78.4947 30.0552ZM56.9528 47.5296C59.8159 50.7838 61.9356 54.6217 63.1647 58.7768L65.0826 58.2094C63.771 53.7758 61.5093 49.6806 58.4543 46.2085L56.9528 47.5296ZM63.8684 59.46C66.3383 60.1121 68.8802 60.4546 71.4344 60.4804L71.4546 58.4805C69.0657 58.4563 66.6886 58.136 64.3789 57.5262L63.8684 59.46ZM72.4445 59.4804V30.049H70.4445V59.4804H72.4445ZM71.4445 29.049H64.63V31.049H71.4445V29.049ZM63.63 30.0446C63.6064 35.3825 61.4079 40.7942 56.9314 46.2336L58.4757 47.5045C63.1603 41.8122 65.6038 35.9694 65.63 30.0534L63.63 30.0446ZM43.9382 38.8076C48.7735 40.4497 53.1117 43.2931 56.5439 47.0728L58.0246 45.7283C54.364 41.6971 49.7374 38.6649 44.5813 36.9138L43.9382 38.8076ZM58.0581 47.034C62.6047 41.4793 64.9863 35.7857 65.0128 30.0546L63.0128 30.0454C62.989 35.1979 60.8528 40.462 56.5104 45.7672L58.0581 47.034ZM64.0128 29.05H42V31.05H64.0128V29.05ZM41.0001 30.0613C41.0294 32.646 41.3846 35.2184 42.0595 37.7147L43.9901 37.1927C43.3595 34.8599 43.0274 32.4553 42.9999 30.0386L41.0001 30.0613ZM42.6339 38.3741C43.0942 38.5696 43.5663 38.7225 44.026 38.833L44.4935 36.8884C44.1368 36.8026 43.7701 36.6838 43.4157 36.5333L42.6339 38.3741Z" fill="black" mask="url(#path-1-inside-1_192_40)"/>
<mask id="path-3-outside-2_192_40" maskUnits="userSpaceOnUse" x="4" y="35" width="62" height="62" fill="black">
<rect fill="white" x="4" y="35" width="62" height="62"/>
<path d="M49.7961 53.6212C49.6663 53.6187 49.5509 53.537 49.5062 53.4157L44.4093 37.5341C38.2703 35.4886 31.6344 35.4886 25.4963 37.5341L20.2545 53.4157C20.209 53.537 20.0944 53.6187 19.9647 53.6212H7.64545C5.89398 57.4736 4.99165 61.659 5.00006 65.8914C5.00006 70.5879 6.10956 75.2188 8.23681 79.4057L10.5923 77.7267C10.6985 77.6424 10.8485 77.6424 10.9546 77.7267L25.9308 88.5956C26.0336 88.6748 26.0766 88.8096 26.0395 88.9343L24.433 93.8499C31.1953 96.41 38.6613 96.41 45.4236 93.8499L43.817 88.9343C43.7799 88.8096 43.8237 88.6757 43.9257 88.5965L58.9019 77.7275C59.0081 77.6433 59.158 77.6424 59.2642 77.7267L61.5835 79.4057C65.6762 71.3453 65.8986 61.8645 62.1867 53.621L49.7961 53.6212ZM42.5492 76.158C42.5045 76.2793 42.3891 76.361 42.2594 76.3627H27.5003C27.3706 76.361 27.256 76.2793 27.2105 76.158L22.6696 62.0994C22.6359 61.9755 22.6788 61.8433 22.7782 61.7616L34.747 53.0785C34.8565 53.0053 34.9997 53.0053 35.1092 53.0785L47.0661 61.7624C47.1655 61.8441 47.2085 61.9756 47.1748 62.0994L42.5492 76.158Z"/>
<path d="M23.2968 62.1226L27.7171 75.7584H42.0658L46.498 62.1226L34.8916 53.6933L23.2968 62.1226Z"/>
<path d="M24.7224 37.7743C17.3375 40.4542 11.2996 45.9275 7.91038 53.0157H19.7704L24.7224 37.7743Z"/>
<path d="M50.0138 53.0152H61.8739C58.4847 45.927 52.4468 40.4537 45.0619 37.7739L50.0138 53.0152Z"/>
<path d="M10.7362 78.3405L8.51369 79.9588C11.8406 86.2105 17.2879 91.0713 23.8766 93.6668L25.4107 88.9811L10.7362 78.3405Z"/>
<path d="M44.4085 88.9705L45.9544 93.6687C52.5433 91.0732 57.9898 86.2124 61.3165 79.9607L59.0941 78.3424L44.4085 88.9705Z"/>
</mask>
<path d="M49.7961 53.6212C49.6663 53.6187 49.5509 53.537 49.5062 53.4157L44.4093 37.5341C38.2703 35.4886 31.6344 35.4886 25.4963 37.5341L20.2545 53.4157C20.209 53.537 20.0944 53.6187 19.9647 53.6212H7.64545C5.89398 57.4736 4.99165 61.659 5.00006 65.8914C5.00006 70.5879 6.10956 75.2188 8.23681 79.4057L10.5923 77.7267C10.6985 77.6424 10.8485 77.6424 10.9546 77.7267L25.9308 88.5956C26.0336 88.6748 26.0766 88.8096 26.0395 88.9343L24.433 93.8499C31.1953 96.41 38.6613 96.41 45.4236 93.8499L43.817 88.9343C43.7799 88.8096 43.8237 88.6757 43.9257 88.5965L58.9019 77.7275C59.0081 77.6433 59.158 77.6424 59.2642 77.7267L61.5835 79.4057C65.6762 71.3453 65.8986 61.8645 62.1867 53.621L49.7961 53.6212ZM42.5492 76.158C42.5045 76.2793 42.3891 76.361 42.2594 76.3627H27.5003C27.3706 76.361 27.256 76.2793 27.2105 76.158L22.6696 62.0994C22.6359 61.9755 22.6788 61.8433 22.7782 61.7616L34.747 53.0785C34.8565 53.0053 34.9997 53.0053 35.1092 53.0785L47.0661 61.7624C47.1655 61.8441 47.2085 61.9756 47.1748 62.0994L42.5492 76.158Z" fill="white"/>
<path d="M23.2968 62.1226L27.7171 75.7584H42.0658L46.498 62.1226L34.8916 53.6933L23.2968 62.1226Z" fill="black"/>
<path d="M24.7224 37.7743C17.3375 40.4542 11.2996 45.9275 7.91038 53.0157H19.7704L24.7224 37.7743Z" fill="black"/>
<path d="M50.0138 53.0152H61.8739C58.4847 45.927 52.4468 40.4537 45.0619 37.7739L50.0138 53.0152Z" fill="black"/>
<path d="M10.7362 78.3405L8.51369 79.9588C11.8406 86.2105 17.2879 91.0713 23.8766 93.6668L25.4107 88.9811L10.7362 78.3405Z" fill="black"/>
<path d="M44.4085 88.9705L45.9544 93.6687C52.5433 91.0732 57.9898 86.2124 61.3165 79.9607L59.0941 78.3424L44.4085 88.9705Z" fill="black"/>
<path d="M49.7961 53.6212L49.7766 54.621L49.7863 54.6212L49.7961 54.6212L49.7961 53.6212ZM49.5062 53.4157L48.5541 53.7213L48.5605 53.7414L48.5678 53.7612L49.5062 53.4157ZM44.4093 37.5341L45.3615 37.2285L45.2066 36.7456L44.7255 36.5853L44.4093 37.5341ZM25.4963 37.5341L25.1802 36.5854L24.704 36.744L24.5467 37.2206L25.4963 37.5341ZM20.2545 53.4157L21.1908 53.7668L21.1978 53.7481L21.2041 53.7291L20.2545 53.4157ZM19.9647 53.6212V54.6212H19.9744L19.9841 54.621L19.9647 53.6212ZM7.64545 53.6212V52.6212H7.00159L6.73511 53.2074L7.64545 53.6212ZM5.00006 65.8914L6.00006 65.8914L6.00006 65.8894L5.00006 65.8914ZM8.23681 79.4057L7.34528 79.8586L7.8714 80.8941L8.81724 80.22L8.23681 79.4057ZM10.5923 77.7267L11.1728 78.541L11.1938 78.526L11.214 78.51L10.5923 77.7267ZM10.9546 77.7267L10.333 78.51L10.3498 78.5234L10.3672 78.536L10.9546 77.7267ZM25.9308 88.5956L26.5412 87.8035L26.5298 87.7947L26.5182 87.7863L25.9308 88.5956ZM26.0395 88.9343L26.99 89.245L26.9942 89.2322L26.9981 89.2193L26.0395 88.9343ZM24.433 93.8499L23.4824 93.5392L23.1858 94.447L24.0789 94.7851L24.433 93.8499ZM45.4236 93.8499L45.7776 94.7851L46.6708 94.447L46.3741 93.5392L45.4236 93.8499ZM43.817 88.9343L42.8585 89.2193L42.8623 89.2322L42.8665 89.245L43.817 88.9343ZM43.9257 88.5965L43.3383 87.7872L43.3251 87.7968L43.3122 87.8068L43.9257 88.5965ZM58.9019 77.7275L59.4893 78.5368L59.5067 78.5242L59.5236 78.5108L58.9019 77.7275ZM59.2642 77.7267L58.6425 78.51L58.6599 78.5237L58.6778 78.5367L59.2642 77.7267ZM61.5835 79.4057L60.9971 80.2157L61.9452 80.902L62.4751 79.8584L61.5835 79.4057ZM62.1867 53.621L63.0985 53.2104L62.8331 52.621L62.1867 52.621L62.1867 53.621ZM42.5492 76.158L43.4876 76.5034L43.4936 76.4871L43.4991 76.4705L42.5492 76.158ZM42.2594 76.3627V77.3628L42.2723 77.3626L42.2594 76.3627ZM27.5003 76.3627L27.4873 77.3627H27.5003V76.3627ZM27.2105 76.158L26.2589 76.4653L26.266 76.4875L26.2742 76.5092L27.2105 76.158ZM22.6696 62.0994L21.7047 62.3619L21.7108 62.3845L21.718 62.4067L22.6696 62.0994ZM22.7782 61.7616L22.191 60.9521L22.1666 60.9699L22.1432 60.989L22.7782 61.7616ZM34.747 53.0785L34.1908 52.2475L34.1751 52.258L34.1598 52.2691L34.747 53.0785ZM35.1092 53.0785L35.6969 52.2694L35.6814 52.2581L35.6654 52.2475L35.1092 53.0785ZM47.0661 61.7624L47.7011 60.9899L47.678 60.9709L47.6538 60.9533L47.0661 61.7624ZM47.1748 62.0994L48.1247 62.4119L48.1329 62.3871L48.1397 62.362L47.1748 62.0994ZM23.2968 62.1226L22.7088 61.3138L22.1217 61.7406L22.3455 62.431L23.2968 62.1226ZM27.7171 75.7584L26.7659 76.0667L26.9901 76.7584H27.7171V75.7584ZM42.0658 75.7584V76.7584H42.7922L43.0168 76.0675L42.0658 75.7584ZM46.498 62.1226L47.449 62.4318L47.6737 61.7406L47.0856 61.3135L46.498 62.1226ZM34.8916 53.6933L35.4792 52.8841L34.8913 52.4571L34.3035 52.8844L34.8916 53.6933ZM24.7224 37.7743L25.6735 38.0833L26.3062 36.1358L24.3813 36.8343L24.7224 37.7743ZM7.91038 53.0157L7.00821 52.5843L6.3238 54.0157H7.91038V53.0157ZM19.7704 53.0157V54.0157H20.497L20.7215 53.3247L19.7704 53.0157ZM50.0138 53.0152L49.0628 53.3242L49.2873 54.0152H50.0138V53.0152ZM61.8739 53.0152V54.0152H63.4605L62.7761 52.5838L61.8739 53.0152ZM45.0619 37.7739L45.403 36.8339L43.4781 36.1354L44.1108 38.0829L45.0619 37.7739ZM10.7362 78.3405L11.3232 77.5309L10.7349 77.1044L10.1475 77.5321L10.7362 78.3405ZM8.51369 79.9588L7.92505 79.1504L7.22282 79.6618L7.63091 80.4286L8.51369 79.9588ZM23.8766 93.6668L23.5101 94.5972L24.497 94.9859L24.827 93.9779L23.8766 93.6668ZM25.4107 88.9811L26.3611 89.2922L26.5879 88.5994L25.9978 88.1715L25.4107 88.9811ZM44.4085 88.9705L43.8222 88.1603L43.2302 88.5888L43.4586 89.283L44.4085 88.9705ZM45.9544 93.6687L45.0045 93.9812L45.3356 94.9873L46.3209 94.5991L45.9544 93.6687ZM61.3165 79.9607L62.1993 80.4305L62.6074 79.6636L61.9052 79.1523L61.3165 79.9607ZM59.0941 78.3424L59.6827 77.534L59.0959 77.1067L58.5078 77.5323L59.0941 78.3424ZM49.8155 52.6214C50.0942 52.6269 50.3458 52.8018 50.4447 53.0702L48.5678 53.7612C48.756 54.2722 49.2384 54.6106 49.7766 54.621L49.8155 52.6214ZM50.4584 53.1101L45.3615 37.2285L43.4572 37.8397L48.5541 53.7213L50.4584 53.1101ZM44.7255 36.5853C38.3813 34.4716 31.5235 34.4715 25.1802 36.5854L25.8124 38.4828C31.7454 36.5057 38.1594 36.5057 44.0932 38.4828L44.7255 36.5853ZM24.5467 37.2206L19.3049 53.1023L21.2041 53.7291L26.4459 37.8475L24.5467 37.2206ZM19.3181 53.0646C19.4155 52.8051 19.6622 52.6269 19.9452 52.6214L19.9841 54.621C20.5266 54.6105 21.0025 54.2689 21.1908 53.7668L19.3181 53.0646ZM19.9647 52.6212H7.64545V54.6212H19.9647V52.6212ZM6.73511 53.2074C4.92427 57.1903 3.99136 61.5176 4.00006 65.8934L6.00006 65.8894C5.99193 61.8004 6.86369 57.7569 8.55578 54.0351L6.73511 53.2074ZM4.00006 65.8914C4.00006 70.7454 5.14676 75.5315 7.34528 79.8586L9.12834 78.9527C7.07237 74.9061 6.00006 70.4304 6.00006 65.8914H4.00006ZM8.81724 80.22L11.1728 78.541L10.0119 76.9124L7.65639 78.5913L8.81724 80.22ZM11.214 78.51C10.9561 78.7147 10.5909 78.7147 10.333 78.51L11.5762 76.9434C11.106 76.5702 10.4409 76.5702 9.9707 76.9434L11.214 78.51ZM10.3672 78.536L25.3435 89.405L26.5182 87.7863L11.542 76.9174L10.3672 78.536ZM25.3205 89.3878C25.0922 89.2119 25.0014 88.917 25.081 88.6493L26.9981 89.2193C27.1518 88.7023 26.9751 88.1378 26.5412 87.8035L25.3205 89.3878ZM25.089 88.6236L23.4824 93.5392L25.3835 94.1606L26.99 89.245L25.089 88.6236ZM24.0789 94.7851C31.0693 97.4316 38.7872 97.4316 45.7776 94.7851L45.0695 92.9147C38.5353 95.3884 31.3212 95.3884 24.787 92.9147L24.0789 94.7851ZM46.3741 93.5392L44.7675 88.6236L42.8665 89.245L44.473 94.1606L46.3741 93.5392ZM44.7755 88.6493C44.8568 88.9228 44.7603 89.2144 44.5392 89.3862L43.3122 87.8068C42.8872 88.1369 42.703 88.6965 42.8585 89.2193L44.7755 88.6493ZM44.513 89.4058L59.4893 78.5368L58.3146 76.9182L43.3383 87.7872L44.513 89.4058ZM59.5236 78.5108C59.27 78.712 58.9048 78.7181 58.6425 78.51L59.8858 76.9434C59.4112 76.5667 58.7461 76.5745 58.2803 76.9442L59.5236 78.5108ZM58.6778 78.5367L60.9971 80.2157L62.1699 78.5956L59.8506 76.9166L58.6778 78.5367ZM62.4751 79.8584C66.7049 71.5282 66.9347 61.73 63.0985 53.2104L61.2749 54.0316C64.8625 61.9991 64.6476 71.1624 60.6918 78.9529L62.4751 79.8584ZM62.1867 52.621L49.7961 52.6212L49.7961 54.6212L62.1867 54.621L62.1867 52.621ZM41.6107 75.8126C41.7093 75.5447 41.9622 75.3665 42.2464 75.3628L42.2723 77.3626C42.816 77.3556 43.2997 77.0139 43.4876 76.5034L41.6107 75.8126ZM27.5133 75.3628C27.8017 75.3665 28.0497 75.5481 28.1468 75.8068L26.2742 76.5092C26.4622 77.0105 26.9394 77.3555 27.4873 77.3626L27.5133 75.3628ZM28.1621 75.8506L23.6212 61.792L21.718 62.4067L26.2589 76.4653L28.1621 75.8506ZM23.6345 61.8368C23.7056 62.0982 23.6137 62.3693 23.4132 62.5341L22.1432 60.989C21.744 61.3172 21.5661 61.8529 21.7047 62.3619L23.6345 61.8368ZM23.3655 62.571L35.3342 53.888L34.1598 52.2691L22.191 60.9521L23.3655 62.571ZM35.3032 53.9096C35.0761 54.0616 34.7801 54.0616 34.5531 53.9096L35.6654 52.2475C35.2193 51.9489 34.6369 51.9489 34.1908 52.2475L35.3032 53.9096ZM34.5216 53.8877L46.4785 62.5715L47.6538 60.9533L35.6969 52.2694L34.5216 53.8877ZM46.4311 62.5349C46.232 62.3712 46.1383 62.0998 46.2099 61.8368L48.1397 62.362C48.2787 61.8513 48.0991 61.317 47.7011 60.9899L46.4311 62.5349ZM46.2249 61.7868L41.5993 75.8454L43.4991 76.4705L48.1247 62.4119L46.2249 61.7868ZM22.3455 62.431L26.7659 76.0667L28.6684 75.45L24.2481 61.8143L22.3455 62.431ZM27.7171 76.7584H42.0658V74.7584H27.7171V76.7584ZM43.0168 76.0675L47.449 62.4318L45.547 61.8135L41.1148 75.4492L43.0168 76.0675ZM47.0856 61.3135L35.4792 52.8841L34.3039 54.5024L45.9104 62.9318L47.0856 61.3135ZM34.3035 52.8844L22.7088 61.3138L23.8848 62.9315L35.4796 54.5021L34.3035 52.8844ZM24.3813 36.8343C16.7499 39.6036 10.5106 45.2595 7.00821 52.5843L8.81256 53.447C12.0887 46.5954 17.925 41.3048 25.0635 38.7144L24.3813 36.8343ZM7.91038 54.0157H19.7704V52.0157H7.91038V54.0157ZM20.7215 53.3247L25.6735 38.0833L23.7713 37.4653L18.8194 52.7067L20.7215 53.3247ZM50.0138 54.0152H61.8739V52.0152H50.0138V54.0152ZM62.7761 52.5838C59.2737 45.2591 53.0344 39.6031 45.403 36.8339L44.7208 38.7139C51.8592 41.3043 57.6956 46.595 60.9717 53.4466L62.7761 52.5838ZM44.1108 38.0829L49.0628 53.3242L50.9649 52.7062L46.0129 37.4649L44.1108 38.0829ZM10.1475 77.5321L7.92505 79.1504L9.10233 80.7672L11.3248 79.1489L10.1475 77.5321ZM7.63091 80.4286C11.0696 86.8903 16.7 91.9145 23.5101 94.5972L24.2431 92.7364C17.8759 90.2281 12.6116 85.5306 9.39647 79.489L7.63091 80.4286ZM24.827 93.9779L26.3611 89.2922L24.4604 88.6699L22.9263 93.3556L24.827 93.9779ZM25.9978 88.1715L11.3232 77.5309L10.1491 79.1501L24.8237 89.7906L25.9978 88.1715ZM43.4586 89.283L45.0045 93.9812L46.9043 93.3561L45.3584 88.6579L43.4586 89.283ZM46.3209 94.5991C53.1314 91.9163 58.7609 86.8921 62.1993 80.4305L60.4337 79.491C57.2188 85.5326 51.9553 90.23 45.5879 92.7383L46.3209 94.5991ZM61.9052 79.1523L59.6827 77.534L58.5054 79.1508L60.7279 80.7691L61.9052 79.1523ZM58.5078 77.5323L43.8222 88.1603L44.9948 89.7806L59.6803 79.1525L58.5078 77.5323ZM42.2594 75.3627H27.5003V77.3627H42.2594V75.3627Z" fill="black" mask="url(#path-3-outside-2_192_40)"/>
</g>
<defs>
<filter id="filter0_d_192_40" x="0" y="0" width="105.82" height="104.77" filterUnits="userSpaceOnUse" color-interpolation-filters="sRGB">
<feFlood flood-opacity="0" result="BackgroundImageFix"/>
<feColorMatrix in="SourceAlpha" type="matrix" values="0 0 0 0 0 0 0 0 0 0 0 0 0 0 0 0 0 0 127 0" result="hardAlpha"/>
<feOffset dy="4"/>
<feGaussianBlur stdDeviation="2"/>
<feComposite in2="hardAlpha" operator="out"/>
<feColorMatrix type="matrix" values="0 0 0 0 0 0 0 0 0 0 0 0 0 0 0 0 0 0 0.25 0"/>
<feBlend mode="normal" in2="BackgroundImageFix" result="effect1_dropShadow_192_40"/>
<feBlend mode="normal" in="SourceGraphic" in2="effect1_dropShadow_192_40" result="shape"/>
</filter>
</defs>
</svg>
