<svg viewBox="0 0 96 96" fill="none" xmlns="http://www.w3.org/2000/svg">
<path d="M95.1845 28.3067H74.6786C75.036 21.7365 78.7906 14.9396 85.9889 8.10888C91.6581 13.3218 94.9753 20.6087 95.1845 28.3067Z" fill="#FF8A00" stroke="black"/>
<path d="M67.3868 28.3061V0.509293C73.7552 0.683228 79.8813 2.98666 84.7854 7.05049C77.402 14.0841 73.4294 21.2333 73.0725 28.3061H67.3868Z" fill="#FF8A00" stroke="black"/>
<path d="M65.7841 0.509717V28.3065H60.0985C59.7423 21.2335 55.7698 14.0843 48.3864 7.05092C53.2907 2.98709 59.4166 0.683608 65.7841 0.509717Z" fill="#FF8A00" stroke="black"/>
<path d="M84.7302 51.219C79.8333 55.252 73.7299 57.5364 67.3871 57.7074V29.9105H73.063C73.2713 37.1206 77.235 44.274 84.7302 51.219Z" fill="#FF8A00" stroke="black"/>
<path d="M58.4914 28.3067H38.0336C38.2306 20.616 41.5299 13.3301 47.1817 8.10959C54.3796 14.9401 58.1338 21.7367 58.4914 28.3067Z" fill="#FF8A00" stroke="black"/>
<path d="M74.6684 29.9117H95.1863C94.9814 37.6339 91.6479 44.9439 85.9498 50.1628C78.6212 43.415 74.8791 36.6047 74.6684 29.9117Z" fill="#FF8A00" stroke="black"/>
<path d="M59.5194 56.8368C58.2862 52.8034 56.2348 49.0679 53.4939 45.8631C57.7211 40.6193 59.9563 35.2823 60.1088 29.9105H65.7837V57.7071C63.6702 57.6485 61.5691 57.3569 59.5194 56.8368Z" fill="#FF8A00" stroke="black"/>
<path d="M39.8496 36.5828L39.1887 36.3583V36.3924C39.0922 36.3599 38.9957 36.3251 38.8997 36.2882C38.356 34.204 38.0507 32.0642 37.9882 29.9115H58.5042C58.3528 34.7829 56.3262 39.717 52.4047 44.6503C48.9431 40.9782 44.6329 38.208 39.8496 36.5828Z" fill="#FF8A00" stroke="black"/>
<path d="M44.7885 54.1764V54.1765H44.7982L56.8643 54.1762C60.2993 62.0339 60.1259 70.9972 56.4005 78.7111L54.5668 77.3836C54.2808 77.1645 53.886 77.1686 53.6042 77.3847L38.6338 88.2497L38.6272 88.2545L38.6208 88.2595C38.3573 88.4641 38.2433 88.8109 38.3396 89.1347L38.3394 89.1347L38.3436 89.1475L39.8007 93.6059C33.421 95.9025 26.4383 95.9025 20.0587 93.6059L21.5158 89.1475L21.516 89.1475L21.5198 89.1346C21.6152 88.8138 21.5054 88.4642 21.237 88.2574L21.2313 88.253L21.2255 88.2488L6.25517 77.3838C5.97188 77.1666 5.57827 77.1661 5.29444 77.3822L3.42442 78.7152C1.50128 74.7366 0.500058 70.3716 0.500059 65.9475L0.500057 65.9465C0.492001 61.8926 1.33381 57.8826 2.96946 54.1765H14.9654V54.1765L14.9751 54.1764C15.3112 54.1698 15.6065 53.9582 15.7234 53.6465L15.7269 53.6371L15.73 53.6276L20.893 37.9844C26.7821 36.0773 33.123 36.0771 39.013 37.9836L44.0323 53.6237L44.0355 53.6337L44.0392 53.6436C44.1556 53.9598 44.4545 54.1698 44.7885 54.1764ZM38.0202 76.3876L38.0232 76.3794L38.0259 76.3712L42.6518 62.3115L42.6558 62.2991L42.6593 62.2865C42.7456 61.9693 42.6343 61.6364 42.3856 61.432L42.3741 61.4225L42.362 61.4137L30.4045 52.7292L30.3967 52.7235L30.3888 52.7182C30.111 52.5323 29.7481 52.5323 29.4703 52.7182L29.4625 52.7235L29.4548 52.729L17.4855 61.4127L17.4733 61.4215L17.4616 61.4311C17.2123 61.6361 17.1018 61.97 17.188 62.2865L17.191 62.2978L17.1946 62.3089L21.7357 76.3686L21.7393 76.3796L21.7434 76.3905C21.8602 76.7018 22.156 76.9152 22.4949 76.9196V76.9196H22.5014H29.8812L37.2611 76.9197L37.2676 76.9196C37.6043 76.9152 37.9039 76.7035 38.0202 76.3876Z" fill="white" stroke="black"/>
<path d="M18.2977 62.1785L22.7182 75.8152H37.0676L41.5 62.1785L29.893 53.7485L18.2977 62.1785Z" fill="black"/>
<path d="M19.7233 37.8284C12.3381 40.5084 6.29992 45.9821 2.91052 53.0708H14.7711L19.7233 37.8284Z" fill="black"/>
<path d="M45.016 53.0704H56.8766C53.4872 45.9817 47.4491 40.508 40.0638 37.8279L45.016 53.0704Z" fill="black"/>
<path d="M5.73642 78.3976L3.51385 80.016C6.84092 86.2681 12.2885 91.1293 18.8775 93.725L20.4117 89.0389L5.73642 78.3976Z" fill="black"/>
<path d="M39.4104 89.0283L40.9564 93.7269C47.5456 91.1312 52.9923 86.27 56.3192 80.0179L54.0966 78.3995L39.4104 89.0283Z" fill="black"/>
</svg>
