<svg class="logo-img" viewBox="0 0 298 90" fill="none" xmlns="http://www.w3.org/2000/svg" >
<path d="M23.088 43.056C18.2624 43.056 14.1232 42.1824 10.6704 40.4352C7.2176 38.6464 4.576 36.1504 2.7456 32.9472C0.9152 29.7024 0 25.896 0 21.528C0 17.16 0.9152 13.3744 2.7456 10.1712C4.576 6.9264 7.2176 4.4304 10.6704 2.6832C14.1232 0.8944 18.2624 0 23.088 0C27.7888 0 31.8032 0.7072 35.1312 2.1216C38.5008 3.536 41.08 5.5744 42.8688 8.2368C44.6576 10.8992 45.552 14.1024 45.552 17.8464V18.9072H32.448V17.8464C32.448 15.4752 31.7824 13.7904 30.4512 12.792C29.12 11.752 26.728 11.232 23.2752 11.232C20.4464 11.232 18.2416 11.5232 16.6608 12.1056C15.1216 12.6464 14.04 13.6656 13.416 15.1632C12.792 16.6192 12.48 18.7408 12.48 21.528C12.48 24.2736 12.792 26.3952 13.416 27.8928C14.04 29.3904 15.1216 30.4304 16.6608 31.0128C18.2416 31.5536 20.4464 31.824 23.2752 31.824C26.728 31.824 29.12 31.3248 30.4512 30.3264C31.7824 29.2864 32.448 27.5808 32.448 25.2096V24.1488H45.552V25.2096C45.552 28.912 44.6576 32.1152 42.8688 34.8192C41.08 37.4816 38.5008 39.52 35.1312 40.9344C31.8032 42.3488 27.7888 43.056 23.088 43.056Z" fill="white"/>
<path d="M109.803 18.1584H108.992L109.305 23.1735C110.007 23.0768 110.724 23.0257 111.454 23.0236L109.803 18.1584Z" fill="#00A651"/>
<path d="M121.285 17.9712L125.403 28.7664H126.214L128.682 21.9908C126.471 19.7733 123.775 17.9843 120.754 16.7713L121.285 17.9712Z" fill="#00A651"/>
<path d="M178.402 89.808H166.671V48H178.402V89.808Z" fill="white"/>
<path d="M131.784 89.808H148.632L165.418 48H151.315L140.77 77.952H139.959L130.062 50.4936C127.248 53.8811 123.4 56.4779 118.961 57.8682L131.784 89.808Z" fill="white"/>
<path d="M114.999 48L115.941 50.3476C117.691 49.8379 119.303 49.0349 120.711 48H114.999Z" fill="white"/>
<path d="M50.7644 32.9472C52.5948 36.1504 55.2364 38.6464 58.6892 40.4352C60.52 41.3506 62.5336 42.0263 64.73 42.4621C64.2534 40.7156 64 38.8855 64 37C64 34.9538 64.2984 32.9728 64.8567 31.0931C64.7752 31.067 64.6953 31.0403 64.6172 31.0128C63.078 30.4304 61.9964 29.3904 61.3724 27.8928C60.79 26.3952 60.4988 24.2736 60.4988 21.528C60.4988 18.7408 60.79 16.6192 61.3724 15.1632C61.9964 13.6656 63.078 12.6464 64.6172 12.1056C66.1564 11.5232 68.3404 11.232 71.1692 11.232C73.998 11.232 76.2028 11.5232 77.7836 12.1056C79.3644 12.6464 80.4668 13.6656 81.0908 15.1632C81.1773 15.3526 81.2583 15.5533 81.3336 15.7652C81.8373 17.1824 82.0892 19.1034 82.0892 21.528C82.0892 22.4209 82.054 23.2478 81.9836 24.0087C81.8375 25.5875 81.5399 26.8822 81.0908 27.8928C80.4668 29.3904 79.3644 30.4304 77.7836 31.0128C76.702 31.3828 75.3284 31.6262 73.6626 31.7431C72.9585 33.3659 72.5706 35.1405 72.5706 37C72.5706 39.1307 73.0799 41.15 73.9907 42.9571C77.7723 42.6837 81.0542 41.8431 83.8364 40.4352C85.3923 39.6387 86.7833 38.702 88.0093 37.6251C89.5368 36.2834 90.8082 34.7241 91.8236 32.9472C93.2101 30.4892 94.0715 27.7089 94.4077 24.6064C94.508 23.6809 94.5616 22.7267 94.5684 21.7438C94.5689 21.672 94.5692 21.6001 94.5692 21.528C94.5692 19.5104 94.3739 17.617 93.9834 15.8479C93.5284 13.787 92.8085 11.8948 91.8236 10.1712C89.9932 6.9264 87.3308 4.4304 83.8364 2.6832C80.3836 0.8944 76.1612 0 71.1692 0C66.3436 0 62.1836 0.8944 58.6892 2.6832C55.2364 4.4304 52.5948 6.9264 50.7644 10.1712C48.934 13.3744 48.0188 17.16 48.0188 21.528C48.0188 25.896 48.934 29.7024 50.7644 32.9472Z" fill="#0081C9"/>
<path d="M92.6394 50.1263C91.037 50.6763 89.306 50.9764 87.5 50.9764C81.5307 50.9764 76.3796 47.6967 73.9907 42.9571C73.0799 41.15 72.5706 39.1307 72.5706 37C72.5706 35.1405 72.9585 33.3659 73.6626 31.7431C75.1908 28.2213 78.2084 25.4148 81.9836 24.0087C82.054 23.2478 82.0892 22.4209 82.0892 21.528C82.0892 19.1034 81.8373 17.1824 81.3336 15.7652C73.359 17.7899 67.0685 23.6465 64.8567 31.0931C64.2984 32.9728 64 34.9538 64 37C64 38.8855 64.2534 40.7156 64.73 42.4621C65.2663 44.4273 66.0852 46.2867 67.1439 48C70.5197 53.4633 76.333 57.4414 83.1916 58.6311C84.5883 58.8734 86.0284 59 87.5 59C89.4962 59 91.4342 58.767 93.2848 58.3285V50.9011C93.0637 50.6475 92.8484 50.3891 92.6394 50.1263Z" fill="#FCB131"/>
<path d="M111 37C111 34.2057 110.444 31.533 109.429 29.0739C108.657 27.2035 107.62 25.4567 106.361 23.8737C104.508 21.5451 102.176 19.5711 99.5 18.0805C98.9151 17.7547 98.3137 17.4519 97.6974 17.1736C96.5114 16.638 95.27 16.1929 93.9834 15.8479C94.3739 17.617 94.5692 19.5104 94.5692 21.528C94.5692 21.6001 94.5689 21.672 94.5684 21.7438C94.5616 22.7267 94.508 23.6809 94.4077 24.6064C95.6098 25.1948 96.7157 25.932 97.6974 26.7919C98.3572 27.3697 98.9608 28.0029 99.5 28.6836C101.341 31.0075 102.429 33.8847 102.429 37C102.429 38.9266 102.013 40.7621 101.26 42.432C100.795 43.4623 100.202 44.4296 99.5 45.3164C100.298 46.3234 101.236 47.2265 102.289 48H105.016V49.593C105.453 49.7905 105.901 49.9686 106.361 50.1263C109.275 46.4621 111 41.9196 111 37Z" fill="#FCB131"/>
<path d="M62.8336 89.808H74.5648V73.4592L74.0656 65.472H74.8768L80.1808 73.7088L92.536 89.808H105.016V58.1519V51.6668V49.593V48H102.289H96.711H93.2848V49.8885V50.9011V58.3285V64.1616L93.8464 73.272H93.0352L86.92 63.6624L83.1916 58.6311C76.333 57.4414 70.5197 53.4633 67.1439 48H62.8336V89.808Z" fill="white"/>
<path d="M113.609 0.623999H97.6974V17.1736C98.3137 17.4519 98.9151 17.7547 99.5 18.0805C102.176 19.5711 104.508 21.5451 106.361 23.8737C107.62 25.4567 108.657 27.2035 109.429 29.0739V25.1472L109.305 23.1735L108.992 18.1584H109.803L111.454 23.0236L112.174 25.1472L118.414 39.936H123.176L125.379 31.839L126.214 28.7664H125.403L121.285 17.9712L120.754 16.7713L113.609 0.623999Z" fill="black"/>
<path d="M101.26 42.432C102.013 40.7621 102.429 38.9266 102.429 37C102.429 33.8847 101.341 31.0075 99.5 28.6836C98.9608 28.0029 98.3572 27.3697 97.6974 26.7919V31.6636V42.3364C97.7115 42.3683 97.7258 42.4002 97.7401 42.432H101.26Z" fill="black"/>
<path d="M99.5 45.3164C98.7977 44.4296 98.2048 43.4623 97.7401 42.432H97.6974V42.3364C96.9713 40.6921 96.5706 38.8899 96.5706 37C96.5706 35.1101 96.9713 33.3079 97.6974 31.6636V26.7919C96.7157 25.932 95.6098 25.1948 94.4077 24.6064C94.0715 27.7089 93.2101 30.4892 91.8236 32.9472C90.8082 34.7241 89.5368 36.2834 88.0093 37.6251C88.1488 42.3041 89.8487 46.6178 92.6394 50.1263C92.8484 50.3891 93.0637 50.6475 93.2848 50.9011V49.8885V48H96.711H102.289C101.236 47.2265 100.298 46.3234 99.5 45.3164Z" fill="#00A651"/>
<path d="M135 37C135 36.2089 134.955 35.4276 134.868 34.6581L132.641 39.936H126.099C125.357 43.1867 123.407 46.0184 120.711 48C119.303 49.0349 117.691 49.8379 115.941 50.3476C114.538 50.7563 113.047 50.9764 111.5 50.9764C109.694 50.9764 107.963 50.6763 106.361 50.1263C105.901 49.9686 105.453 49.7905 105.016 49.593V51.6668V58.1519C107.076 58.7042 109.251 59 111.5 59C114.108 59 116.617 58.6023 118.961 57.8682C123.4 56.4779 127.248 53.8811 130.062 50.4936C133.157 46.7677 135 42.0854 135 37Z" fill="#00A651"/>
<path d="M137.446 0.623999L130.145 17.9712L128.682 21.9908L126.214 28.7664L125.379 31.839L123.176 39.936H126.099H132.641L134.868 34.6581L138.881 25.1472L141.253 18.1584H142.064L141.627 25.1472V42.432H153.358V0.623999H137.446Z" fill="#ED1B2F"/>
<path d="M34.1023 89.808H25.5535H22.3711V48H25.5535H34.1023H59.4991V58.5456H34.1023V63.5376H58.5631V74.0208H34.1023V79.2624H59.4991V89.808H34.1023Z" fill="white"/>
<path fill-rule="evenodd" clip-rule="evenodd" d="M161.043 0.623999H168.843H180.262C183.59 0.623999 186.46 1.248 188.873 2.496C191.286 3.7024 193.137 5.4704 194.427 7.8C195.758 10.088 196.424 12.896 196.424 16.224C196.424 19.5104 195.758 22.3392 194.427 24.7104C193.137 27.04 191.286 28.8288 188.873 30.0768C186.46 31.2832 183.59 31.8864 180.262 31.8864H168.843V42.432H157.111V0.623999H161.043ZM183.382 20.4048C182.508 21.0288 181.032 21.3408 178.952 21.3408H168.843V11.1696H178.952C181.032 11.1696 182.508 11.4816 183.382 12.1056C184.297 12.7296 184.755 14.1024 184.755 16.224C184.755 18.3872 184.297 19.7808 183.382 20.4048Z" fill="white"/>
<path d="M210.646 42.432H202.097H198.915V0.623999H202.097H210.646H236.043V11.1696H210.646V16.1616H235.107V26.6448H210.646V31.8864H236.043V42.432H210.646Z" fill="white"/>
<path d="M264.961 42.432H253.23V11.1696H238.441V0.623999H253.23H264.961H279.688V11.1696H264.961V42.432Z" fill="white"/>
<path d="M282.521 12.6048V0.623999H297.746V11.1696V12.6048V13.416C297.746 16.6192 296.831 19.0112 295.001 20.592C293.212 22.1728 290.674 22.9632 287.388 22.9632H283.082V15.7248H287.014C287.762 15.7248 288.303 15.5792 288.636 15.288C289.01 14.9968 289.198 14.3936 289.198 13.4784V12.6048H282.521Z" fill="white"/>
<path d="M260.149 59.9808V48H275.375V58.5456V59.9808V60.792C275.375 63.9952 274.46 66.3872 272.629 67.968C270.84 69.5488 268.303 70.3392 265.016 70.3392H260.711V63.1008H264.642C265.391 63.1008 265.932 62.9552 266.264 62.664C266.639 62.3728 266.826 61.7696 266.826 60.8544V59.9808H260.149Z" fill="white"/>
<path d="M232.88 89.808H224.394H221.149V48H232.88V79.2624H257.029V89.808H232.88Z" fill="white"/>
<path d="M193.88 89.808H185.394H182.149V48H193.88V79.2624H218.029V89.808H193.88Z" fill="white"/>
</svg>
