<svg width="170" height="166" viewBox="0 0 170 166" fill="none" xmlns="http://www.w3.org/2000/svg">
<path d="M167.489 52.5957C167.489 67.9461 160.653 81.6998 149.86 90.9787C141.005 98.5909 129.486 103.191 116.893 103.191C103.794 103.191 91.8576 98.2135 82.8722 90.046C72.6901 80.7906 66.2977 67.4397 66.2977 52.5957C66.2977 37.7518 72.6901 24.4008 82.8722 15.1455C91.8576 6.97803 103.794 2 116.893 2C129.486 2 141.005 6.60061 149.86 14.2128C160.653 23.4917 167.489 37.2454 167.489 52.5957Z" fill="#FF8A00"/>
<path d="M167.489 52.5957C167.489 67.9461 160.653 81.6998 149.86 90.9787M167.489 52.5957C167.489 37.2454 160.653 23.4917 149.86 14.2128M167.489 52.5957H129.106M116.893 103.191C129.486 103.191 141.005 98.5909 149.86 90.9787M116.893 103.191C103.794 103.191 91.8576 98.2135 82.8722 90.046M116.893 103.191V2.87234V2M66.2977 52.5957C66.2977 37.7518 72.6901 24.4008 82.8722 15.1455M66.2977 52.5957C66.2977 67.4397 72.6901 80.7907 82.8722 90.046M66.2977 52.5957H102.936M116.893 2C129.486 2 141.005 6.60061 149.86 14.2128M116.893 2C103.794 2 91.8576 6.97803 82.8722 15.1455M149.86 90.9787C142.942 86.0355 129.106 71.4383 129.106 52.5957M129.106 52.5957C129.106 33.7532 142.942 19.156 149.86 14.2128M129.106 52.5957H102.936M82.8722 15.1455C89.5601 20.3594 102.936 35.1489 102.936 52.5957M102.936 52.5957C102.936 70.0426 89.5601 84.8321 82.8722 90.046" stroke="black" stroke-width="3.48936"/>
<mask id="path-3-inside-1_216_27" fill="white">
<path d="M4.35506 92.7234H27.0424L36.6382 63.7153C22.1479 68.2664 10.3731 78.9495 4.35506 92.7234Z"/>
<path fill-rule="evenodd" clip-rule="evenodd" d="M99.4467 136.502C102.8 129.599 104.681 121.849 104.681 113.66C104.681 106.216 103.127 99.1347 100.326 92.7234H77.6382L68.0424 63.7153C63.0856 62.1585 57.811 61.3192 52.3403 61.3192C46.8697 61.3192 41.595 62.1585 36.6382 63.7153L27.0424 92.7234H4.35506C1.55384 99.1347 -0.00012207 106.216 -0.00012207 113.66C-0.00012207 121.849 1.88069 129.599 5.23392 136.502L10.468 132.851L37.5105 152.915L34.8935 163.022C40.3505 164.951 46.2228 166 52.3403 166C58.4578 166 64.3301 164.951 69.7871 163.022L66.2978 152.915L94.2126 132.851L99.4467 136.502ZM52.3403 90.1064L29.6595 106.681L38.3829 131.979H66.2978L75.0212 106.681L52.3403 90.1064Z"/>
<path d="M29.6595 106.681L52.3403 90.1064L75.0212 106.681L66.2978 131.979H38.3829L29.6595 106.681Z"/>
<path d="M68.0424 63.7153L77.6382 92.7234H100.326C94.3075 78.9495 82.5327 68.2664 68.0424 63.7153Z"/>
<path d="M99.4467 136.502L94.2126 132.851L66.2978 152.915L69.7871 163.022C82.8108 158.419 93.4686 148.807 99.4467 136.502Z"/>
<path d="M5.23392 136.502C11.212 148.807 21.8699 158.419 34.8935 163.022L37.5105 152.915L10.468 132.851L5.23392 136.502Z"/>
</mask>
<path d="M4.35506 92.7234H27.0424L36.6382 63.7153C22.1479 68.2664 10.3731 78.9495 4.35506 92.7234Z" fill="black"/>
<path fill-rule="evenodd" clip-rule="evenodd" d="M99.4467 136.502C102.8 129.599 104.681 121.849 104.681 113.66C104.681 106.216 103.127 99.1347 100.326 92.7234H77.6382L68.0424 63.7153C63.0856 62.1585 57.811 61.3192 52.3403 61.3192C46.8697 61.3192 41.595 62.1585 36.6382 63.7153L27.0424 92.7234H4.35506C1.55384 99.1347 -0.00012207 106.216 -0.00012207 113.66C-0.00012207 121.849 1.88069 129.599 5.23392 136.502L10.468 132.851L37.5105 152.915L34.8935 163.022C40.3505 164.951 46.2228 166 52.3403 166C58.4578 166 64.3301 164.951 69.7871 163.022L66.2978 152.915L94.2126 132.851L99.4467 136.502ZM52.3403 90.1064L29.6595 106.681L38.3829 131.979H66.2978L75.0212 106.681L52.3403 90.1064Z" fill="white"/>
<path d="M29.6595 106.681L52.3403 90.1064L75.0212 106.681L66.2978 131.979H38.3829L29.6595 106.681Z" fill="black"/>
<path d="M68.0424 63.7153L77.6382 92.7234H100.326C94.3075 78.9495 82.5327 68.2664 68.0424 63.7153Z" fill="black"/>
<path d="M99.4467 136.502L94.2126 132.851L66.2978 152.915L69.7871 163.022C82.8108 158.419 93.4686 148.807 99.4467 136.502Z" fill="black"/>
<path d="M5.23392 136.502C11.212 148.807 21.8699 158.419 34.8935 163.022L37.5105 152.915L10.468 132.851L5.23392 136.502Z" fill="black"/>
<path d="M29.6595 106.681L29.1448 105.977L28.6248 106.356L28.8348 106.965L29.6595 106.681ZM52.3403 90.1064L52.855 89.4021L52.3403 89.0259L51.8256 89.4021L52.3403 90.1064ZM75.0212 106.681L75.8458 106.965L76.0558 106.356L75.5359 105.977L75.0212 106.681ZM66.2978 131.979V132.851H66.9197L67.1224 132.263L66.2978 131.979ZM38.3829 131.979L37.5582 132.263L37.7609 132.851H38.3829V131.979ZM27.0424 92.7234V93.5957H27.6727L27.8706 92.9974L27.0424 92.7234ZM77.6382 92.7234L76.81 92.9974L77.0079 93.5957H77.6382V92.7234ZM94.2126 132.851L94.7117 132.136L94.2051 131.782L93.7035 132.143L94.2126 132.851ZM66.2978 152.915L65.7886 152.207L65.2612 152.586L65.4732 153.2L66.2978 152.915ZM10.468 132.851L10.9877 132.15L10.4837 131.777L9.96893 132.136L10.468 132.851ZM37.5105 152.915L38.355 153.134L38.5023 152.565L38.0303 152.214L37.5105 152.915ZM30.1741 107.385L52.855 90.8107L51.8256 89.4021L29.1448 105.977L30.1741 107.385ZM51.8256 90.8107L74.5065 107.385L75.5359 105.977L52.855 89.4021L51.8256 90.8107ZM74.1965 106.396L65.4731 131.694L67.1224 132.263L75.8458 106.965L74.1965 106.396ZM66.2978 131.106H38.3829V132.851H66.2978V131.106ZM39.2075 131.694L30.4841 106.396L28.8348 106.965L37.5582 132.263L39.2075 131.694ZM4.35506 93.5957H27.0424V91.8511H4.35506V93.5957ZM27.8706 92.9974L37.4664 63.9893L35.81 63.4413L26.2142 92.4494L27.8706 92.9974ZM67.2142 63.9893L76.81 92.9974L78.4664 92.4494L68.8706 63.4413L67.2142 63.9893ZM77.6382 93.5957H100.326V91.8511H77.6382V93.5957ZM99.9457 135.786L94.7117 132.136L93.7136 133.567L98.9477 137.217L99.9457 135.786ZM93.7035 132.143L65.7886 152.207L66.8069 153.623L94.7218 133.559L93.7035 132.143ZM65.4732 153.2L68.9625 163.306L70.6117 162.737L67.1223 152.63L65.4732 153.2ZM5.73296 137.217L10.967 133.567L9.96893 132.136L4.73489 135.786L5.73296 137.217ZM35.738 163.24L38.355 153.134L36.666 152.696L34.049 162.803L35.738 163.24ZM38.0303 152.214L10.9877 132.15L9.94818 133.552L36.9907 153.615L38.0303 152.214ZM4.35506 92.7234L2.75632 92.0249L4.35506 92.7234ZM36.6382 63.7153L36.1154 62.0508L36.6382 63.7153ZM68.0424 63.7153L68.5652 62.0508L68.0424 63.7153ZM100.326 92.7234L98.7268 93.4219L100.326 92.7234ZM99.4467 136.502L101.016 137.264L99.4467 136.502ZM69.7871 163.022L69.2057 161.377L69.7871 163.022ZM34.8935 163.022L35.4749 161.377L34.8935 163.022ZM5.23392 136.502L6.80322 135.739L5.23392 136.502ZM1.74456 113.66C1.74456 106.461 3.24701 99.6171 5.9538 93.4219L2.75632 92.0249C-0.139337 98.6523 -1.7448 105.971 -1.7448 113.66H1.74456ZM5.9538 93.4219C11.7716 80.1065 23.1563 69.7784 37.161 65.3798L36.1154 62.0508C21.1395 66.7545 8.97468 77.7926 2.75632 92.0249L5.9538 93.4219ZM37.161 65.3798C41.9506 63.8755 47.049 63.0638 52.3403 63.0638V59.5745C46.6903 59.5745 41.2395 60.4414 36.1154 62.0508L37.161 65.3798ZM52.3403 63.0638C57.6316 63.0638 62.73 63.8755 67.5196 65.3798L68.5652 62.0508C63.4412 60.4414 57.9903 59.5745 52.3403 59.5745V63.0638ZM67.5196 65.3798C81.5243 69.7784 92.9091 80.1065 98.7268 93.4219L101.924 92.0249C95.7059 77.7926 83.5411 66.7545 68.5652 62.0508L67.5196 65.3798ZM98.7268 93.4219C101.434 99.6171 102.936 106.461 102.936 113.66H106.425C106.425 105.971 104.82 98.6523 101.924 92.0249L98.7268 93.4219ZM102.936 113.66C102.936 121.579 101.118 129.069 97.8774 135.739L101.016 137.264C104.482 130.129 106.425 122.119 106.425 113.66H102.936ZM97.8774 135.739C92.0981 147.636 81.7932 156.928 69.2057 161.377L70.3685 164.667C83.8283 159.909 94.8392 149.979 101.016 137.264L97.8774 135.739ZM69.2057 161.377C63.9328 163.24 58.257 164.255 52.3403 164.255V167.745C58.6586 167.745 64.7274 166.661 70.3685 164.667L69.2057 161.377ZM52.3403 164.255C46.4236 164.255 40.7478 163.24 35.4749 161.377L34.3121 164.667C39.9532 166.661 46.022 167.745 52.3403 167.745V164.255ZM35.4749 161.377C22.8874 156.928 12.5825 147.636 6.80322 135.739L3.66462 137.264C9.84145 149.979 20.8523 159.909 34.3121 164.667L35.4749 161.377ZM6.80322 135.739C3.56289 129.069 1.74456 121.579 1.74456 113.66H-1.7448C-1.7448 122.119 0.198488 130.129 3.66462 137.264L6.80322 135.739Z" fill="black" mask="url(#path-3-inside-1_216_27)"/>
</svg>
